<?xml version="1.0" encoding="us-ascii" standalone="no"?><svg xmlns="http://www.w3.org/2000/svg" xmlns:xlink="http://www.w3.org/1999/xlink" contentStyleType="text/css" height="218px" preserveAspectRatio="none" style="width:807px;height:218px;background:#FFFFFF;" version="1.1" viewBox="0 0 807 218" width="807px" zoomAndPan="magnify"><defs/><g><!--cluster CardsQL--><g id="cluster_CardsQL"><rect fill="none" height="83.38" rx="2.5" ry="2.5" style="stroke:#181818;stroke-width:1.0;" width="794" x="7" y="7"/><text fill="#000000" font-family="sans-serif" font-size="14" font-weight="bold" lengthAdjust="spacing" textLength="60" x="374" y="22.0059">CardsQL</text></g><g id="elem_CC"><ellipse cx="91.9959" cy="58.1892" fill="#F1F1F1" rx="68.9459" ry="16.1892" style="stroke:#181818;stroke-width:0.5;"/><text fill="#000000" font-family="sans-serif" font-size="14" lengthAdjust="spacing" textLength="85" x="46.4959" y="61.9421">Create Cards</text></g><g id="elem_RC"><ellipse cx="327.9959" cy="58.1892" fill="#F1F1F1" rx="68.9459" ry="16.1892" style="stroke:#181818;stroke-width:0.5;"/><text fill="#000000" font-family="sans-serif" font-size="14" lengthAdjust="spacing" textLength="85" x="282.4959" y="61.9421">Revise Cards</text></g><g id="elem_EC"><ellipse cx="492.0029" cy="58.189" fill="#F1F1F1" rx="60.1029" ry="15.299" style="stroke:#181818;stroke-width:0.5;"/><text fill="#000000" font-family="sans-serif" font-size="14" lengthAdjust="spacing" textLength="66" x="456.0029" y="61.942">Edit Cards</text></g><g id="elem_DC"><ellipse cx="716.9999" cy="58.192" fill="#F1F1F1" rx="68.2599" ry="16.052" style="stroke:#181818;stroke-width:0.5;"/><text fill="#000000" font-family="sans-serif" font-size="14" lengthAdjust="spacing" textLength="83" x="672.4999" y="61.945">Delete Cards</text></g><!--entity u--><g id="elem_u"><ellipse cx="328" cy="145.88" fill="#F1F1F1" rx="8" ry="8" style="stroke:#181818;stroke-width:0.5;"/><path d="M328,153.88 L328,180.88 M315,161.88 L341,161.88 M328,180.88 L315,195.88 M328,180.88 L341,195.88 " fill="none" style="stroke:#181818;stroke-width:0.5;"/><text fill="#000000" font-family="sans-serif" font-size="14" lengthAdjust="spacing" textLength="28" x="314" y="210.3859">user</text></g><!--link CC to u--><g id="link_CC_u"><path d="M120.47,73.13 C171.22,97.99 275.59,149.11 313.68,167.77 " fill="none" id="CC-u" style="stroke:#181818;stroke-width:1.0;"/></g><!--link RC to u--><g id="link_RC_u"><path d="M328,74.78 C328,90.68 328,115.95 328,137.1 " fill="none" id="RC-u" style="stroke:#181818;stroke-width:1.0;"/></g><!--link EC to u--><g id="link_EC_u"><path d="M472.54,72.9 C439.11,96.47 371.54,144.09 342.17,164.8 " fill="none" id="EC-u" style="stroke:#181818;stroke-width:1.0;"/></g><!--reverse link CC to RC--><g id="link_CC_RC"><path d="M167.21,58.19 C197.95,58.19 228.05,58.19 258.79,58.19 " fill="none" id="CC-backto-RC" style="stroke:#181818;stroke-width:1.0;stroke-dasharray:7.0,7.0;"/><polygon fill="#181818" points="161.21,58.19,170.21,62.19,166.21,58.19,170.21,54.19,161.21,58.19" style="stroke:#181818;stroke-width:1.0;"/><text fill="#000000" font-family="sans-serif" font-size="13" lengthAdjust="spacing" textLength="62" x="179" y="51.267">&#171;includes&#187;</text></g><!--reverse link EC to DC--><g id="link_EC_DC"><path d="M558.59,58.19 C588.14,58.19 617.8,58.19 648.35,58.19 " fill="none" id="EC-backto-DC" style="stroke:#181818;stroke-width:1.0;stroke-dasharray:7.0,7.0;"/><polygon fill="#181818" points="552.59,58.19,561.59,62.19,557.59,58.19,561.59,54.19,552.59,58.19" style="stroke:#181818;stroke-width:1.0;"/><text fill="#000000" font-family="sans-serif" font-size="13" lengthAdjust="spacing" textLength="60" x="570.42" y="51.267">&#171;extends&#187;</text></g><!--SRC=[]--></g></svg>