<?xml version="1.0" encoding="us-ascii" standalone="no"?><svg xmlns="http://www.w3.org/2000/svg" xmlns:xlink="http://www.w3.org/1999/xlink" contentStyleType="text/css" height="329px" preserveAspectRatio="none" style="width:256px;height:329px;background:#FFFFFF;" version="1.1" viewBox="0 0 256 329" width="256px" zoomAndPan="magnify"><defs/><g><!--cluster CardsQL--><g id="cluster_CardsQL"><rect fill="none" height="316" rx="2.5" ry="2.5" style="stroke:#181818;stroke-width:1.0;" width="169.89" x="81" y="7"/><text fill="#000000" font-family="sans-serif" font-size="14" font-weight="bold" lengthAdjust="spacing" textLength="60" x="135.945" y="22.0059">CardsQL</text></g><g id="elem_CC"><ellipse cx="165.9459" cy="57.9992" fill="#F1F1F1" rx="68.9459" ry="16.1892" style="stroke:#181818;stroke-width:0.5;"/><text fill="#000000" font-family="sans-serif" font-size="14" lengthAdjust="spacing" textLength="85" x="120.4459" y="61.7521">Create Cards</text></g><g id="elem_RC"><ellipse cx="165.9459" cy="141.9992" fill="#F1F1F1" rx="68.9459" ry="16.1892" style="stroke:#181818;stroke-width:0.5;"/><text fill="#000000" font-family="sans-serif" font-size="14" lengthAdjust="spacing" textLength="85" x="120.4459" y="145.7521">Revise Cards</text></g><g id="elem_EC"><ellipse cx="165.9529" cy="291.999" fill="#F1F1F1" rx="60.1029" ry="15.299" style="stroke:#181818;stroke-width:0.5;"/><text fill="#000000" font-family="sans-serif" font-size="14" lengthAdjust="spacing" textLength="66" x="129.9529" y="295.752">Edit Cards</text></g><g id="elem_DC"><ellipse cx="165.9499" cy="209.002" fill="#F1F1F1" rx="68.2599" ry="16.052" style="stroke:#181818;stroke-width:0.5;"/><text fill="#000000" font-family="sans-serif" font-size="14" lengthAdjust="spacing" textLength="83" x="121.4499" y="212.755">Delete Cards</text></g><!--entity u--><g id="elem_u"><ellipse cx="20" cy="112.1" fill="#F1F1F1" rx="8" ry="8" style="stroke:#181818;stroke-width:0.5;"/><path d="M20,120.1 L20,147.1 M7,128.1 L33,128.1 M20,147.1 L7,162.1 M20,147.1 L33,162.1 " fill="none" style="stroke:#181818;stroke-width:0.5;"/><text fill="#000000" font-family="sans-serif" font-size="14" lengthAdjust="spacing" textLength="28" x="6" y="176.6059">user</text></g><!--link u to CC--><g id="link_u_CC"><path d="M34.49,132.75 C44.88,125.73 59.67,115.97 73,108 C93.75,95.6 112.4428,85.3888 130.7228,75.7488 " fill="none" id="u-to-CC" style="stroke:#181818;stroke-width:1.0;"/><polygon fill="#181818" points="136.03,72.95,126.2033,73.61,131.6073,75.2823,129.935,80.6863,136.03,72.95" style="stroke:#181818;stroke-width:1.0;"/></g><!--link u to RC--><g id="link_u_RC"><path d="M34.28,142 C48.76,142 67.04,142 90.77,142 " fill="none" id="u-to-RC" style="stroke:#181818;stroke-width:1.0;"/><polygon fill="#181818" points="96.77,142,87.77,138,91.77,142,87.77,146,96.77,142" style="stroke:#181818;stroke-width:1.0;"/></g><!--link u to EC--><g id="link_u_EC"><path d="M34.32,180.48 C42.89,200.95 55.69,225.44 73,243 C89,259.23 106.0152,268.9631 124.7652,277.0931 " fill="none" id="u-to-EC" style="stroke:#181818;stroke-width:1.0;"/><polygon fill="#181818" points="130.27,279.48,123.6041,272.2298,125.6827,277.4909,120.4215,279.5695,130.27,279.48" style="stroke:#181818;stroke-width:1.0;"/></g><!--reverse link CC to RC--><g id="link_CC_RC"><path d="M165.95,80.56 C165.95,95.28 165.95,110.68 165.95,125.4 " fill="none" id="CC-backto-RC" style="stroke:#181818;stroke-width:1.0;stroke-dasharray:7.0,7.0;"/><polygon fill="#181818" points="165.95,74.56,161.95,83.56,165.95,79.56,169.95,83.56,165.95,74.56" style="stroke:#181818;stroke-width:1.0;"/><text fill="#000000" font-family="sans-serif" font-size="13" lengthAdjust="spacing" textLength="62" x="123.45" y="104.577">&#171;includes&#187;</text></g><!--reverse link EC to DC--><g id="link_EC_DC"><path d="M165.95,270.39 C165.95,255.83 165.95,240.2 165.95,225.39 " fill="none" id="EC-backto-DC" style="stroke:#181818;stroke-width:1.0;stroke-dasharray:7.0,7.0;"/><polygon fill="#181818" points="165.95,276.39,169.95,267.39,165.95,271.39,161.95,267.39,165.95,276.39" style="stroke:#181818;stroke-width:1.0;"/><text fill="#000000" font-family="sans-serif" font-size="13" lengthAdjust="spacing" textLength="60" x="124.45" y="255.457">&#171;extends&#187;</text></g><!--SRC=[]--></g></svg>